#N canvas 614 75 911 568 16;
#X obj 110 64 gemhead;
#X obj 117 121 pix_video;
#X obj 116 192 pix_texture;
#X obj 271 397 gemwin;
#X msg 280 333 create \, 1;
#X floatatom 272 190 5 0 0 0 - - -;
#X floatatom 336 194 5 0 0 0 - - -;
#X obj 431 178 pix_texture;
#X obj 116 245 sphere 1;
#X obj 431 231 cube 4 4;
#X obj 304 56 loadbang;
#X msg 304 91 6.29;
#X text 356 88 my default sphere size;
#X connect 0 0 1 0;
#X connect 1 0 2 0;
#X connect 1 0 7 0;
#X connect 2 0 8 0;
#X connect 4 0 3 0;
#X connect 5 0 8 1;
#X connect 6 0 8 2;
#X connect 7 0 9 0;
#X connect 10 0 11 0;
#X connect 11 0 5 0;
