#N canvas 626 22 1019 877 16;
#X obj -5 598 gemwin;
#X obj 71 256 rectangle 4 3;
#X obj 71 225 pix_texture;
#X obj 210 180 pix_data;
#X obj 71 75 pix_video;
#X floatatom 564 347 5 0 0 0 - - -;
#X floatatom 256 69 5 0 0 0 - - -;
#X floatatom 314 70 5 0 0 0 - - -;
#X obj 133 127 t b a;
#X obj 348 329 unpack f f f;
#X floatatom 329 370 5 0 0 0 - - -;
#X floatatom 395 370 5 0 0 0 - - -;
#X floatatom 459 371 5 0 0 0 - - -;
#X obj 197 412 color;
#X obj 289 4 loadbang;
#X msg 289 32 0.5;
#X obj 197 439 square 1;
#X obj 628 431 mapping/smooth;
#X obj 631 458 hsl 128 15 0 1 0 0 empty empty empty -2 -8 0 10 -262144
-1 -1 2456 1;
#X obj 633 565 -;
#X obj 633 528 t f f;
#X obj 633 593 abs;
#X obj 636 621 hsl 128 15 0 1 0 0 empty empty empty -2 -8 0 10 -262144
-1 -1 0 1;
#X obj 335 422 hsl 128 15 0 1 0 0 empty empty empty -2 -8 0 10 -258113
-1 -1 2689 1;
#X obj 336 441 hsl 128 15 0 1 0 0 empty empty empty -2 -8 0 10 -4034
-1 -1 2988 1;
#X obj 337 462 hsl 128 15 0 1 0 0 empty empty empty -2 -8 0 10 -4160
-1 -1 3237 1;
#X msg 120 47 dimen 80 60;
#X text 302 179 see pix_data helpfile;
#X text 626 346 grey value;
#X text 379 66 x/y pos of pixel to track;
#X obj 197 385 gemhead 2;
#X obj 71 19 gemhead 1;
#X text 475 439 green value;
#X text 473 422 red value;
#X text 477 459 blue value;
#X text 640 634 track change in colour;
#X text 627 475 track grey value with some smoothing;
#X msg -5 565 create \, 1;
#X text -26 539 • first click here;
#X text -39 74 webcam input;
#X text 37 280 map webcam to rectangle;
#X obj 217 739 output~;
#X obj 216 624 openpanel;
#X obj 219 594 bng 15 250 50 0 empty empty empty 17 7 0 10 -262144
-1 -1;
#X msg 217 649 open \$1;
#X floatatom 413 691 5 0 0 0 - - -;
#X text 468 688 speed;
#X text 195 790 • turn up the volume;
#X floatatom 633 682 5 0 0 0 - - -;
#X text 698 708 set threshold;
#X obj 632 736 change;
#X obj 632 801 tgl 15 0 empty empty empty 17 7 0 10 -262144 -1 -1 0
1;
#X text 770 768 optional;
#X obj 644 769 speedlim 500;
#X text 785 431 optional;
#X obj 217 689 moonlib/sfread2~ 2;
#X text 195 556 • then load a soundfile here;
#X obj 426 615 bng 15 250 50 0 empty empty empty 17 7 0 10 -262144
-1 -1;
#X text 451 611 play;
#X obj 632 708 > 0.05;
#X msg 5 116 dialog;
#X connect 2 0 1 0;
#X connect 3 1 9 0;
#X connect 3 1 13 1;
#X connect 3 2 5 0;
#X connect 4 0 2 0;
#X connect 4 0 8 0;
#X connect 5 0 17 0;
#X connect 5 0 20 0;
#X connect 6 0 3 2;
#X connect 7 0 3 3;
#X connect 8 0 3 0;
#X connect 8 1 3 1;
#X connect 9 0 10 0;
#X connect 9 1 11 0;
#X connect 9 2 12 0;
#X connect 10 0 23 0;
#X connect 11 0 24 0;
#X connect 12 0 25 0;
#X connect 13 0 16 0;
#X connect 14 0 15 0;
#X connect 15 0 6 0;
#X connect 15 0 7 0;
#X connect 17 0 18 0;
#X connect 19 0 21 0;
#X connect 20 0 19 1;
#X connect 20 1 19 0;
#X connect 21 0 22 0;
#X connect 22 0 48 0;
#X connect 26 0 4 0;
#X connect 30 0 13 0;
#X connect 31 0 4 0;
#X connect 37 0 0 0;
#X connect 42 0 44 0;
#X connect 43 0 42 0;
#X connect 44 0 55 0;
#X connect 45 0 55 1;
#X connect 48 0 59 0;
#X connect 50 0 51 0;
#X connect 51 0 57 0;
#X connect 55 0 41 0;
#X connect 55 1 41 1;
#X connect 57 0 55 0;
#X connect 59 0 50 0;
#X connect 60 0 4 0;
