#N canvas 0 22 366 476 10;
#X floatatom 44 290 5 0 127 0 - - -;
#X obj 44 149 vsl 15 128 0 127 0 0 empty empty empty 0 -9 0 10 -262144
-1 -1 11300 1;
#X floatatom 102 289 5 0 127 0 - - -;
#X obj 102 148 vsl 15 128 0 127 0 0 empty empty empty 0 -9 0 10 -262144
-1 -1 7700 1;
#X floatatom 161 289 5 0 127 0 - - -;
#X obj 161 148 vsl 15 128 0 127 0 0 empty empty empty 0 -9 0 10 -262144
-1 -1 5800 1;
#X floatatom 219 289 5 0 127 0 - - -;
#X obj 219 148 vsl 15 128 0 127 0 0 empty empty empty 0 -9 0 10 -262144
-1 -1 4900 1;
#X floatatom 276 289 5 0 127 0 - - -;
#X obj 276 148 vsl 15 128 0 127 0 0 empty empty empty 0 -9 0 10 -262144
-1 -1 3200 1;
#X obj 126 415 ctlout;
#X floatatom 41 74 5 0 127 0 - - -;
#X msg 65 343 \$1 2;
#X msg 105 343 \$1 3;
#X msg 150 343 \$1 4;
#X msg 192 343 \$1 5;
#X msg 231 343 \$1 6;
#X msg 41 94 \$1 14;
#X floatatom 96 73 5 0 127 0 - - -;
#X floatatom 158 73 5 0 127 0 - - -;
#X floatatom 216 71 5 0 127 0 - - -;
#X floatatom 276 74 5 0 127 0 - - -;
#X msg 96 93 \$1 15;
#X msg 158 93 \$1 16;
#X msg 216 91 \$1 17;
#X msg 276 94 \$1 18;
#X text 15 21 open preferences/midi_settings and set output to buss
1;
#X connect 0 0 12 0;
#X connect 1 0 0 0;
#X connect 2 0 13 0;
#X connect 3 0 2 0;
#X connect 4 0 14 0;
#X connect 5 0 4 0;
#X connect 6 0 15 0;
#X connect 7 0 6 0;
#X connect 8 0 16 0;
#X connect 9 0 8 0;
#X connect 11 0 17 0;
#X connect 12 0 10 0;
#X connect 13 0 10 0;
#X connect 14 0 10 0;
#X connect 15 0 10 0;
#X connect 16 0 10 0;
#X connect 17 0 10 0;
#X connect 18 0 22 0;
#X connect 19 0 23 0;
#X connect 20 0 24 0;
#X connect 21 0 25 0;
#X connect 22 0 10 0;
#X connect 23 0 10 0;
#X connect 24 0 10 0;
#X connect 25 0 10 0;
