#N canvas 528 155 775 535 10;
#X msg 59 336 devices;
#X text 118 326 first click here and see postwindow;
#X text 118 343 then edit [comport] object to match index of arduino
serialport;
#X obj 150 -34 vsl 15 128 0 255 0 0 empty pwm0 empty 0 -9 0 10 -262144
-1 -1 2344 1;
#X floatatom 150 101 5 0 255 0 - - -;
#X obj -23 148 tgl 15 0 empty empty empty 17 7 0 10 -262144 -1 -1 1
1;
#X obj 100 228 pack 10 0 0 0 0 0 0 11;
#X obj -23 168 metro 25;
#X obj 186 -34 vsl 15 128 0 255 0 0 empty pwm1 empty 0 -9 0 10 -262144
-1 -1 1258 1;
#X floatatom 186 101 5 0 255 0 - - -;
#X obj 222 -34 vsl 15 128 0 255 0 0 empty pwm2 empty 0 -9 0 10 -262144
-1 -1 67 1;
#X floatatom 222 101 5 0 255 0 - - -;
#X obj 258 -34 vsl 15 128 0 255 0 0 empty pwm3 empty 0 -9 0 10 -262144
-1 -1 11903 1;
#X floatatom 258 101 5 0 255 0 - - -;
#X obj 294 -34 vsl 15 128 0 255 0 0 empty pwm4 empty 0 -9 0 10 -262144
-1 -1 10 1;
#X floatatom 294 101 5 0 255 0 - - -;
#X obj 330 -34 vsl 15 128 0 255 0 0 empty pwm5 empty 0 -9 0 10 -262144
-1 -1 3869 1;
#X floatatom 330 101 5 0 255 0 - - -;
#X text -53 119 start sending;
#N canvas 130 512 1010 338 cycle 0;
#X obj 30 162 sin;
#X obj 192 -36 tgl 15 0 empty empty empty 17 7 0 10 -262144 -1 -1 1
1;
#X obj 30 117 f;
#X obj 192 14 t b b b b b b;
#X obj 56 117 + 1;
#X obj 30 138 * 0.1;
#X obj 30 181 maxlib/scale -1 1 1 256 1;
#X obj 30 200 - 1;
#X obj 187 162 sin;
#X obj 187 117 f;
#X obj 213 117 + 1;
#X obj 187 181 maxlib/scale -1 1 1 256 1;
#X obj 187 200 - 1;
#X obj 344 162 sin;
#X obj 344 117 f;
#X obj 370 117 + 1;
#X obj 344 181 maxlib/scale -1 1 1 256 1;
#X obj 344 200 - 1;
#X obj 187 138 * 0.11;
#X obj 344 138 * 0.12;
#X msg 528 30 0;
#X text 564 31 reset phases;
#X obj 501 162 sin;
#X obj 501 117 f;
#X obj 527 117 + 1;
#X obj 501 181 maxlib/scale -1 1 1 256 1;
#X obj 501 200 - 1;
#X obj 658 162 sin;
#X obj 658 117 f;
#X obj 684 117 + 1;
#X obj 658 181 maxlib/scale -1 1 1 256 1;
#X obj 658 200 - 1;
#X obj 815 162 sin;
#X obj 815 117 f;
#X obj 841 117 + 1;
#X obj 815 181 maxlib/scale -1 1 1 256 1;
#X obj 815 200 - 1;
#X obj 501 138 * 0.13;
#X obj 658 138 * 0.14;
#X obj 815 138 * 0.15;
#X obj 192 -10 metro 20;
#X text 216 -36 start;
#X obj 30 240 s pwm0;
#X obj 187 239 s pwm1;
#X obj 344 240 s pwm2;
#X obj 501 240 s pwm3;
#X obj 658 240 s pwm4;
#X obj 815 240 s pwm5;
#X connect 0 0 6 0;
#X connect 1 0 40 0;
#X connect 2 0 4 0;
#X connect 2 0 5 0;
#X connect 3 0 2 0;
#X connect 3 1 9 0;
#X connect 3 2 14 0;
#X connect 3 3 23 0;
#X connect 3 4 28 0;
#X connect 3 5 33 0;
#X connect 4 0 2 1;
#X connect 5 0 0 0;
#X connect 6 0 7 0;
#X connect 7 0 42 0;
#X connect 8 0 11 0;
#X connect 9 0 10 0;
#X connect 9 0 18 0;
#X connect 10 0 9 1;
#X connect 11 0 12 0;
#X connect 12 0 43 0;
#X connect 13 0 16 0;
#X connect 14 0 15 0;
#X connect 14 0 19 0;
#X connect 15 0 14 1;
#X connect 16 0 17 0;
#X connect 17 0 44 0;
#X connect 18 0 8 0;
#X connect 19 0 13 0;
#X connect 20 0 2 1;
#X connect 20 0 9 1;
#X connect 20 0 14 1;
#X connect 20 0 23 1;
#X connect 20 0 28 1;
#X connect 20 0 33 1;
#X connect 22 0 25 0;
#X connect 23 0 24 0;
#X connect 23 0 37 0;
#X connect 24 0 23 1;
#X connect 25 0 26 0;
#X connect 26 0 45 0;
#X connect 27 0 30 0;
#X connect 28 0 29 0;
#X connect 28 0 38 0;
#X connect 29 0 28 1;
#X connect 30 0 31 0;
#X connect 31 0 46 0;
#X connect 32 0 35 0;
#X connect 33 0 34 0;
#X connect 33 0 39 0;
#X connect 34 0 33 1;
#X connect 35 0 36 0;
#X connect 36 0 47 0;
#X connect 37 0 22 0;
#X connect 38 0 27 0;
#X connect 39 0 32 0;
#X connect 40 0 3 0;
#X restore 474 71 pd cycle;
#X text 371 -21 control manually by dragging the sliders;
#X text 408 15 or open subpatches cycle or audio for automation;
#N canvas 130 512 820 379 audio 0;
#X obj 192 -36 tgl 15 0 empty empty empty 17 7 0 10 -262144 -1 -1 0
1;
#X obj 192 -10 metro 20;
#X text 216 -36 start;
#X obj 132 -6 adc~;
#X obj 132 22 avg~;
#X text 427 -2 also turn on dsp for this to work;
#X text 427 13 and make sure mic input in audio preferences;
#X floatatom 132 44 5 0 0 0 - - -;
#X obj 132 94 - 1;
#X obj 132 119 t f f f f f f;
#X obj 29 290 s pwm0;
#X obj 145 290 s pwm1;
#X obj 267 290 s pwm2;
#X obj 383 290 s pwm3;
#X obj 506 290 s pwm4;
#X obj 622 290 s pwm5;
#X obj 29 248 mapping/smooth 0.1;
#X obj 132 72 maxlib/scale 0 1 1 256 1;
#X obj 145 248 mapping/smooth 0.25;
#X obj 267 248 mapping/smooth 0.4;
#X obj 383 248 mapping/smooth 0.55;
#X obj 506 248 mapping/smooth 0.7;
#X obj 622 248 mapping/smooth 0.85;
#X connect 0 0 1 0;
#X connect 1 0 4 0;
#X connect 3 0 4 0;
#X connect 3 1 4 0;
#X connect 4 0 7 0;
#X connect 7 0 17 0;
#X connect 8 0 9 0;
#X connect 9 0 16 0;
#X connect 9 1 18 0;
#X connect 9 2 19 0;
#X connect 9 3 20 0;
#X connect 9 4 21 0;
#X connect 9 5 22 0;
#X connect 16 0 10 0;
#X connect 17 0 8 0;
#X connect 18 0 11 0;
#X connect 19 0 12 0;
#X connect 20 0 13 0;
#X connect 21 0 14 0;
#X connect 22 0 15 0;
#X restore 474 103 pd audio;
#X obj 100 263 comport 5 38400;
#X obj 118 197 int;
#X obj 143 197 int;
#X obj 168 197 int;
#X obj 193 197 int;
#X obj 218 197 int;
#X obj 243 197 int;
#X connect 0 0 23 0;
#X connect 3 0 4 0;
#X connect 4 0 24 0;
#X connect 5 0 7 0;
#X connect 6 0 23 0;
#X connect 7 0 6 0;
#X connect 8 0 9 0;
#X connect 9 0 25 0;
#X connect 10 0 11 0;
#X connect 11 0 26 0;
#X connect 12 0 13 0;
#X connect 13 0 27 0;
#X connect 14 0 15 0;
#X connect 15 0 28 0;
#X connect 16 0 17 0;
#X connect 17 0 29 0;
#X connect 24 0 6 1;
#X connect 25 0 6 2;
#X connect 26 0 6 3;
#X connect 27 0 6 4;
#X connect 28 0 6 5;
#X connect 29 0 6 6;
