#N canvas 184 22 1446 911 16;
#X obj 217 739 output~;
#X obj 216 624 openpanel;
#X obj 219 594 bng 15 250 50 0 empty empty empty 17 7 0 10 -262144
-1 -1;
#X msg 217 649 open \$1;
#X floatatom 413 691 5 0 0 0 - - -;
#X text 468 688 speed;
#X floatatom 633 682 5 0 0 0 - - -;
#X text 698 708 set threshold;
#X obj 632 736 change;
#X obj 632 801 tgl 15 0 empty empty empty 17 7 0 10 -262144 -1 -1 0
1;
#X text 770 768 optional;
#X obj 644 769 speedlim 500;
#X obj 217 689 moonlib/sfread2~ 2;
#X obj 714 33 mrpeach/udpreceive 8338;
#X obj 555 254 tgl 15 0 empty empty empty 17 7 0 10 -262144 -1 -1 1
1;
#X obj 555 191 change;
#X text 577 248 face found;
#X obj 713 193 unpack f f;
#X floatatom 713 226 5 0 0 0 - - -;
#X floatatom 772 227 5 0 0 0 - - -;
#X text 714 250 x y position;
#X obj 555 154 route /found;
#X obj 713 152 route /pose/position /pose/scale /pose/orientation;
#X floatatom 844 226 5 0 0 0 - - -;
#X text 843 249 scale;
#X floatatom 914 227 5 0 0 0 - - -;
#X floatatom 972 227 5 0 0 0 - - -;
#X obj 914 194 unpack f f f;
#X text 915 251 x y z orientation;
#X floatatom 1031 229 5 0 0 0 - - -;
#X obj 714 65 mrpeach/unpackOSC;
#X obj 958 324 route /gesture/mouth/width /gesture/mouth/height;
#X floatatom 959 357 5 0 0 0 - - -;
#X floatatom 1194 358 5 0 0 0 - - -;
#X floatatom 960 452 5 0 0 0 - - -;
#X floatatom 1195 453 5 0 0 0 - - -;
#X obj 959 419 route /gesture/eyebrow/left /gesture/eyebrow/right;
#X floatatom 961 540 5 0 0 0 - - -;
#X floatatom 1196 541 5 0 0 0 - - -;
#X text 1018 355 mouth width;
#X text 1254 356 mouth height;
#X text 1018 449 eyebrow left;
#X text 1256 452 eyebrow right;
#X text 1022 540 eye left;
#X obj 960 507 route /gesture/eye/left /gesture/eye/right;
#X text 1260 540 eye right;
#X obj 961 593 route /gesture/jaw;
#X floatatom 960 626 5 0 0 0 - - -;
#X text 1027 623 jaw;
#X floatatom 959 706 5 0 0 0 - - -;
#X obj 960 673 route /gesture/nostrils;
#X text 1026 703 nostrils;
#X obj 1002 773 maxlib/scale 5 8 0 1;
#X floatatom 1003 805 5 0 0 0 - - -;
#X obj 632 708 > 8;
#X obj 342 610 bng 15 250 50 0 empty empty empty 17 7 0 10 -262144
-1 -1;
#X text 195 556 • load a soundfile here;
#X text 67 82 • first start FaceOSC in the background;
#X connect 1 0 3 0;
#X connect 2 0 1 0;
#X connect 3 0 12 0;
#X connect 4 0 12 1;
#X connect 6 0 54 0;
#X connect 8 0 9 0;
#X connect 9 0 55 0;
#X connect 12 0 0 0;
#X connect 12 1 0 1;
#X connect 13 0 30 0;
#X connect 15 0 14 0;
#X connect 17 0 18 0;
#X connect 17 1 19 0;
#X connect 21 0 15 0;
#X connect 21 1 22 0;
#X connect 22 0 17 0;
#X connect 22 1 23 0;
#X connect 22 2 27 0;
#X connect 22 3 31 0;
#X connect 27 0 25 0;
#X connect 27 1 26 0;
#X connect 27 2 29 0;
#X connect 30 0 21 0;
#X connect 31 0 32 0;
#X connect 31 1 33 0;
#X connect 31 2 36 0;
#X connect 34 0 6 0;
#X connect 36 0 34 0;
#X connect 36 1 35 0;
#X connect 36 2 44 0;
#X connect 44 0 37 0;
#X connect 44 1 38 0;
#X connect 44 2 46 0;
#X connect 46 0 47 0;
#X connect 46 1 50 0;
#X connect 49 0 52 0;
#X connect 50 0 49 0;
#X connect 52 0 53 0;
#X connect 54 0 8 0;
#X connect 55 0 12 0;
